<?xml version="1.0" encoding="UTF-8" standalone="no"?>
<!-- Created with Inkscape (http://www.inkscape.org/) -->

<svg
   xmlns:osb="http://www.openswatchbook.org/uri/2009/osb"
   xmlns:dc="http://purl.org/dc/elements/1.1/"
   xmlns:cc="http://creativecommons.org/ns#"
   xmlns:rdf="http://www.w3.org/1999/02/22-rdf-syntax-ns#"
   xmlns:svg="http://www.w3.org/2000/svg"
   xmlns="http://www.w3.org/2000/svg"
   xmlns:xlink="http://www.w3.org/1999/xlink"
   xmlns:sodipodi="http://sodipodi.sourceforge.net/DTD/sodipodi-0.dtd"
   xmlns:inkscape="http://www.inkscape.org/namespaces/inkscape"
   sodipodi:docname="feature_graphic_master.svg"
   inkscape:version="0.91 r13725"
   version="1.1"
   id="svg3456"
   viewBox="0 0 1024 499.99995"
   height="500"
   width="1024"
   inkscape:export-filename="C:\Users\aj.bobo\Dropbox\AndroidProjects\ContactGrid\othermedia\feature_graphic.png"
   inkscape:export-xdpi="90"
   inkscape:export-ydpi="90">
  <defs
     id="defs3458">
    <linearGradient
       id="fade"
       inkscape:collect="always">
      <stop
         id="stop7243"
         offset="0"
         style="stop-color:#e6e6e6;stop-opacity:1" />
      <stop
         id="stop7245"
         offset="1"
         style="stop-color:#ffffff;stop-opacity:0;" />
    </linearGradient>
    <linearGradient
       id="linearGradient6980"
       osb:paint="solid">
      <stop
         style="stop-color:#000000;stop-opacity:1;"
         offset="0"
         id="stop6982" />
    </linearGradient>
    <linearGradient
       id="gray_black-2"
       gradientUnits="userSpaceOnUse"
       x1="374.30899"
       y1="2.4560001"
       x2="384.98099"
       y2="762.46503"
       xlink:href="#white_fade-5">
      <stop
         offset="0"
         stop-color="#9a9a9a"
         id="stop7" />
      <stop
         offset="1"
         stop-color="#3e3e3e"
         id="stop9" />
    </linearGradient>
    <linearGradient
       inkscape:collect="always"
       xlink:href="#fade"
       id="linearGradient6992"
       x1="0"
       y1="250"
       x2="688.20306"
       y2="250"
       gradientUnits="userSpaceOnUse"
       gradientTransform="scale(0.89809418,1)" />
  </defs>
  <sodipodi:namedview
     inkscape:guide-bbox="true"
     showguides="true"
     showborder="true"
     units="px"
     width="1024mm"
     inkscape:window-maximized="1"
     inkscape:window-y="-8"
     inkscape:window-x="-8"
     inkscape:window-height="1140"
     inkscape:window-width="2133"
     showgrid="false"
     inkscape:current-layer="layer1"
     inkscape:document-units="px"
     inkscape:cy="280.19549"
     inkscape:cx="475.68713"
     inkscape:zoom="1.4544024"
     inkscape:pageshadow="2"
     inkscape:pageopacity="0.0"
     borderopacity="1.0"
     bordercolor="#666666"
     pagecolor="#ffffff"
     id="base">
    <inkscape:grid
       type="xygrid"
       id="grid4354" />
  </sodipodi:namedview>
  <metadata
     id="metadata3461">
    <rdf:RDF>
      <cc:Work
         rdf:about="">
        <dc:format>image/svg+xml</dc:format>
        <dc:type
           rdf:resource="http://purl.org/dc/dcmitype/StillImage" />
        <dc:title></dc:title>
      </cc:Work>
    </rdf:RDF>
  </metadata>
  <g
     inkscape:groupmode="layer"
     id="layer3"
     inkscape:label="Background">
    <rect
       style="fill:#e6e6e6;fill-opacity:1;stroke:none"
       id="bg_rect"
       width="1024"
       height="500"
       x="0"
       y="0"
       inkscape:export-filename="C:\Users\aj.bobo\Dropbox\AndroidProjects\ContactGrid\othermedia\rect7225.png"
       inkscape:export-xdpi="90"
       inkscape:export-ydpi="90" />
  </g>
  <g
     inkscape:label="Main"
     inkscape:groupmode="layer"
     id="layer1"
     transform="translate(0,-552.36224)"
     style="display:inline">
    <g
       id="background"
       transform="matrix(0.50345621,0,0,0.50345621,620.2605,607.52864)">
      <path
         d="m 51.956,2.456 666.053,0 c 26.935,0 49.1,22.0427 49.1,48.828 0,0 0,0 0,0 l 0,666.599 c 0,26.786 -22.165,48.828 -49.1,48.828 0,0 0,0 0,0 l -666.053,0 c -26.936,0 -49.10133,-22.042 -49.10133,-48.828 0,0 0,0 0,0 l 0,-666.599 C 2.85467,24.4987 25.02,2.456 51.956,2.456 c 0,0 0,0 0,0 z"
         id="bg_border"
         inkscape:connector-curvature="0"
         style="fill:url(#gray_black-2);fill-opacity:1;fill-rule:evenodd" />
      <path
         d="m 83.3373,34.5133 602.0097,0 c 23.422,0 42.697,19.1667 42.697,42.4587 l 0,611.403 c 0,23.292 -19.275,42.46 -42.697,42.46 l -602.0097,0 c -23.4226,0 -42.696,-19.168 -42.696,-42.46 l 0,-611.403 c 0,-23.292 19.2734,-42.4587 42.696,-42.4587 z"
         id="bg_fill"
         inkscape:connector-curvature="0"
         style="fill:#161616;fill-rule:evenodd" />
    </g>
    <g
       id="green_droid"
       transform="matrix(0.50345547,8.5954169e-4,-8.5954169e-4,0.50345547,619.88522,607.13813)">
      <path
         d="m 101.487,147.843 -0.004,0 c 10.685,0 19.477,8.793 19.477,19.477 l 0,85.695 c 0,10.685 -8.792,19.477 -19.477,19.477 l 0.004,0 c -10.6857,0 -19.4777,-8.792 -19.4777,-19.477 l 0,-85.695 c 0,-10.684 8.792,-19.477 19.4777,-19.477 z"
         id="rect4921-2"
         inkscape:connector-curvature="0"
         style="fill:#008000;fill-rule:evenodd" />
      <path
         d="m 325.227,146.868 -0.003,0 c 10.685,0 19.477,8.792 19.477,19.477 l 0,85.695 c 0,10.684 -8.792,19.477 -19.477,19.477 l 0.003,0 c -10.684,0 -19.478,-8.793 -19.478,-19.477 l 0,-85.695 c 0,-10.685 8.794,-19.477 19.478,-19.477 z"
         id="rect4921-1-7"
         inkscape:connector-curvature="0"
         style="fill:#008000;fill-rule:evenodd" />
      <path
         d="m 123.888,148.816 179.183,0 0,113.933 -179.183,0 z"
         id="rect4941-6"
         inkscape:connector-curvature="0"
         style="fill:#008000;fill-rule:evenodd" />
      <path
         d="m 139.468,247.172 148.011,0 c 8.546,0 15.581,7.035 15.581,15.581 l 0,31.162 c 0,8.546 -7.035,15.581 -15.581,15.581 l -148.011,0 c -8.547,0 -15.581,-7.035 -15.581,-15.581 l 0,-31.162 c 0,-8.546 7.034,-15.581 15.581,-15.581 z"
         id="rect4943-1"
         inkscape:connector-curvature="0"
         style="fill:#008000;fill-rule:evenodd" />
      <path
         d="m 179.396,286.124 c 11.219,0 20.449,9.229 20.449,20.449 l 0,50.638 c 0,11.22 -9.23,20.45 -20.449,20.45 -11.22,0 -20.451,-9.23 -20.451,-20.45 l 0,-50.638 c 0,-11.22 9.231,-20.449 20.451,-20.449 z"
         id="rect4945-4"
         inkscape:connector-curvature="0"
         style="fill:#008000;fill-rule:evenodd" />
      <path
         d="m 249.508,285.151 c 11.219,0 20.449,9.23 20.449,20.45 l 0,50.638 c 0,11.22 -9.23,20.449 -20.449,20.449 -11.219,0 -20.449,-9.229 -20.449,-20.449 l 0,-50.638 c 0,-11.22 9.23,-20.45 20.449,-20.45 z"
         id="rect4945-7-2"
         inkscape:connector-curvature="0"
         style="fill:#008000;fill-rule:evenodd" />
      <path
         d="m 123.885,144.388 c 0.028,-41.683 40.16,-75.4493 89.643,-75.4293 49.477,0.0253 89.569,33.8293 89.541,75.5133 0,0.199 0,0.397 -0.005,0.589"
         id="path4965-3"
         inkscape:connector-curvature="0"
         style="fill:#008000;fill-rule:evenodd" />
      <path
         d="m 242.468,88.6347 25.137,-35.9 c 1.991,-2.844 5.968,-3.5454 8.812,-1.5534 0,0 0.003,0.0014 0.003,0.0014 2.844,1.992 3.545,5.9693 1.555,8.8133 0,0 0,0 0,0 l -25.138,35.9 c -1.992,2.844 -5.969,3.5453 -8.813,1.5533 0,0 -0.003,-0.0013 -0.003,-0.0013 -2.844,-1.992 -3.545,-5.9693 -1.553,-8.8133 0,0 0,0 0,0 z"
         id="rect4967-2"
         inkscape:connector-curvature="0"
         style="fill:#008000;fill-rule:evenodd" />
      <path
         d="m 186.435,88.148 -25.138,-35.9 c -1.99,-2.844 -5.968,-3.5453 -8.812,-1.5547 0,0 -0.002,0.0027 -0.002,0.0027 -2.844,1.9907 -3.546,5.968 -1.555,8.812 0,0 0,0 0,0 l 25.137,35.9 c 1.992,2.844 5.97,3.5453 8.814,1.5547 0,0 0.002,-0.0027 0.002,-0.0027 2.844,-1.9907 3.546,-5.968 1.554,-8.812 0,0 0,0 0,0 z"
         id="rect4967-4-2"
         inkscape:connector-curvature="0"
         style="fill:#008000;fill-rule:evenodd" />
      <path
         d="m 190.011,115.497 c -0.068,7.32 -6.075,13.191 -13.395,13.106 -7.32,-0.07 -13.189,-6.075 -13.104,-13.395 0.068,-7.32 6.075,-13.189 13.395,-13.104 7.252,0.068 13.086,5.955 13.104,13.189"
         id="path4989-1"
         inkscape:connector-curvature="0"
         style="fill:#f2f2f2;fill-rule:evenodd" />
      <path
         d="m 267.627,114.875 c -0.068,7.32 -6.075,13.189 -13.395,13.104 -7.32,-0.068 -13.189,-6.075 -13.104,-13.395 0.068,-7.32 6.075,-13.189 13.395,-13.104 7.252,0.068 13.086,5.955 13.104,13.189"
         id="path4989-0-6"
         inkscape:connector-curvature="0"
         style="fill:#f2f2f2;fill-rule:evenodd" />
    </g>
    <g
       id="red_droid"
       transform="matrix(0.50345621,0,0,0.50345621,620.2605,607.52864)">
      <path
         d="m 431.764,145.072 -0.001,0 c 10.684,0 19.477,8.792 19.477,19.476 l 0,85.695 c 0,10.684 -8.793,19.476 -19.477,19.476 l 0.001,0 c -10.684,0 -19.476,-8.792 -19.476,-19.476 l 0,-85.695 c 0,-10.684 8.792,-19.476 19.476,-19.476 z"
         id="rect4921-2-3"
         inkscape:connector-curvature="0"
         style="fill:#aa0000;fill-rule:evenodd" />
      <path
         d="m 655.507,144.099 -0.003,0 c 10.684,0 19.477,8.793 19.477,19.477 l 0,85.693 c 0,10.686 -8.793,19.478 -19.477,19.478 l 0.003,0 c -10.686,0 -19.478,-8.792 -19.478,-19.478 l 0,-85.693 c 0,-10.684 8.792,-19.477 19.478,-19.477 z"
         id="rect4921-1-7-3"
         inkscape:connector-curvature="0"
         style="fill:#aa0000;fill-rule:evenodd" />
      <path
         d="m 454.165,146.047 179.182,0 0,113.936 -179.182,0 z"
         id="rect4941-6-4"
         inkscape:connector-curvature="0"
         style="fill:#aa0000;fill-rule:evenodd" />
      <path
         d="m 469.745,244.401 148.014,0 c 8.546,0 15.58,7.034 15.58,15.58 l 0,31.164 c 0,8.547 -7.034,15.58 -15.58,15.58 l -148.014,0 c -8.546,0 -15.58,-7.033 -15.58,-15.58 l 0,-31.164 c 0,-8.546 7.034,-15.58 15.58,-15.58 z"
         id="rect4943-1-1"
         inkscape:connector-curvature="0"
         style="fill:#aa0000;fill-rule:evenodd" />
      <path
         d="m 509.672,283.353 c 0,0 0.003,0 0.003,0 11.217,0 20.449,9.231 20.449,20.45 0,0 0,0 0,0 l 0,50.64 c 0,11.218 -9.232,20.449 -20.449,20.449 0,0 -0.003,0 -0.003,0 -11.219,0 -20.449,-9.231 -20.449,-20.449 0,0 0,0 0,0 l 0,-50.64 c 0,-11.219 9.23,-20.45 20.449,-20.45 z"
         id="rect4945-4-1"
         inkscape:connector-curvature="0"
         style="fill:#aa0000;fill-rule:evenodd" />
      <path
         d="m 579.788,282.38 c 0,0 10e-4,0 10e-4,0 11.219,0 20.45,9.231 20.45,20.449 0,0 0,0 0,0 l 0,50.64 c 0,11.219 -9.231,20.45 -20.45,20.45 0,0 -10e-4,0 -10e-4,0 -11.219,0 -20.451,-9.231 -20.451,-20.45 0,0 0,0 0,0 l 0,-50.64 c 0,-11.218 9.232,-20.449 20.451,-20.449 z"
         id="rect4945-7-2-3"
         inkscape:connector-curvature="0"
         style="fill:#aa0000;fill-rule:evenodd" />
      <path
         d="m 454.164,141.619 c 0.028,-41.6843 40.16,-75.4497 89.643,-75.431 49.476,0.0253 89.569,33.829 89.541,75.513 0,0.199 0,0.398 -0.007,0.59"
         id="path4965-3-8"
         inkscape:connector-curvature="0"
         style="fill:#aa0000;fill-rule:evenodd" />
      <path
         d="M 572.745,85.8627 597.883,49.964 c 1.992,-2.844 5.969,-3.5453 8.813,-1.5547 0,0 0.003,0.0014 0.003,0.0014 2.844,1.992 3.545,5.9693 1.553,8.8146 0,0 0,0 0,0 L 583.116,93.124 c -1.992,2.844 -5.969,3.5453 -8.815,1.5547 0,0 -0.001,-0.0014 -0.001,-0.0014 -2.844,-1.992 -3.545,-5.9693 -1.555,-8.8146 0,0 0,0 0,0 z"
         id="rect4967-2-7"
         inkscape:connector-curvature="0"
         style="fill:#aa0000;fill-rule:evenodd" />
      <path
         d="M 516.715,85.3787 491.577,49.48 c -1.992,-2.8453 -5.969,-3.5467 -8.813,-1.5547 0,0 -0.003,0.0014 -0.003,0.0014 -2.844,1.992 -3.545,5.9693 -1.553,8.8133 0,0 0,0 0,0 l 25.136,35.9 c 1.992,2.844 5.969,3.5453 8.815,1.5533 0,0 10e-4,-0.0013 10e-4,-0.0013 2.844,-1.992 3.545,-5.9693 1.555,-8.8133 0,0 0,0 0,0 z"
         id="rect4967-4-2-4"
         inkscape:connector-curvature="0"
         style="fill:#aa0000;fill-rule:evenodd" />
      <path
         d="m 520.289,112.728 c -0.068,7.32 -6.074,13.189 -13.394,13.104 -7.32,-0.068 -13.19,-6.075 -13.104,-13.395 0.068,-7.32 6.074,-13.189 13.394,-13.1037 7.251,0.068 13.087,5.9547 13.104,13.1897"
         id="path4989-1-2"
         inkscape:connector-curvature="0"
         style="fill:#ececec;fill-rule:evenodd" />
      <path
         d="m 597.905,112.104 c -0.068,7.32 -6.074,13.189 -13.394,13.104 -7.32,-0.068 -13.19,-6.073 -13.104,-13.393 0.068,-7.32 6.074,-13.191 13.394,-13.1057 7.251,0.0694 13.087,5.9557 13.104,13.1907"
         id="path4989-0-6-7"
         inkscape:connector-curvature="0"
         style="fill:#ececec;fill-rule:evenodd" />
    </g>
    <g
       id="yellow_droid"
       transform="matrix(0.2869499,0.4136761,-0.4136761,0.2869499,768.28729,659.33289)">
      <path
         d="m 101.829,488.584 -0.002,0 c 10.684,0 19.477,8.792 19.477,19.476 l 0,85.695 c 0,10.684 -8.793,19.476 -19.477,19.476 l 0.002,0 c -10.685,0 -19.477,-8.792 -19.477,-19.476 l 0,-85.695 c 0,-10.684 8.792,-19.476 19.477,-19.476 z"
         id="rect4921-2-9"
         inkscape:connector-curvature="0"
         style="fill:#d4aa00;fill-rule:evenodd" />
      <path
         d="m 325.571,487.609 -0.003,0 c 10.685,0 19.477,8.792 19.477,19.476 l 0,85.695 c 0,10.684 -8.792,19.476 -19.477,19.476 l 0.003,0 c -10.684,0 -19.478,-8.792 -19.478,-19.476 l 0,-85.695 c 0,-10.684 8.794,-19.476 19.478,-19.476 z"
         id="rect4921-1-7-31"
         inkscape:connector-curvature="0"
         style="fill:#d4aa00;fill-rule:evenodd" />
      <path
         d="m 124.231,489.556 179.181,0 0,113.936 -179.181,0 z"
         id="rect4941-6-9"
         inkscape:connector-curvature="0"
         style="fill:#d4aa00;fill-rule:evenodd" />
      <path
         d="m 139.811,587.911 148.012,0 c 8.546,0 15.58,7.034 15.58,15.581 l 0,31.163 c 0,8.546 -7.034,15.581 -15.58,15.581 l -148.012,0 c -8.547,0 -15.582,-7.035 -15.582,-15.581 l 0,-31.163 c 0,-8.547 7.035,-15.581 15.582,-15.581 z"
         id="rect4943-1-8"
         inkscape:connector-curvature="0"
         style="fill:#d4aa00;fill-rule:evenodd" />
      <path
         d="m 179.736,626.865 c 0,0 0.003,0 0.003,0 11.218,0 20.449,9.231 20.449,20.45 0,0 0,0 0,0 l 0,50.64 c 0,11.218 -9.231,20.449 -20.449,20.449 0,0 -0.003,0 -0.003,0 -11.217,0 -20.449,-9.231 -20.449,-20.449 0,0 0,0 0,0 l 0,-50.64 c 0,-11.219 9.232,-20.45 20.449,-20.45 z"
         id="rect4945-4-6"
         inkscape:connector-curvature="0"
         style="fill:#d4aa00;fill-rule:evenodd" />
      <path
         d="m 249.852,625.891 c 0,0 0.001,0 0.001,0 11.219,0 20.45,9.23 20.45,20.449 0,0 0,0 0,0 l 0,50.64 c 0,11.219 -9.231,20.449 -20.45,20.449 0,0 -0.001,0 -0.001,0 -11.219,0 -20.449,-9.23 -20.449,-20.449 0,0 0,0 0,0 l 0,-50.64 c 0,-11.219 9.23,-20.449 20.449,-20.449 z"
         id="rect4945-7-2-5"
         inkscape:connector-curvature="0"
         style="fill:#d4aa00;fill-rule:evenodd" />
      <path
         d="m 124.228,485.129 c 0.028,-41.389 40.461,-75.43 89.592,-75.43 49.148,0 89.592,34.066 89.592,75.469 0,0.211 0,0.423 -0.005,0.633"
         id="path4965-3-0"
         inkscape:connector-curvature="0"
         style="fill:#d4aa00;fill-rule:evenodd" />
      <path
         d="m 242.811,429.375 25.136,-35.899 c 1.992,-2.845 5.969,-3.547 8.814,-1.555 0,0 0.002,0.002 0.002,0.002 2.844,1.992 3.545,5.969 1.553,8.813 0,0 0,0 0,0 l -25.136,35.9 c -1.992,2.844 -5.969,3.545 -8.815,1.553 0,0 -0.001,-0.001 -0.001,-0.001 -2.844,-1.991 -3.545,-5.969 -1.553,-8.813 0,0 0,0 0,0 z"
         id="rect4967-2-2"
         inkscape:connector-curvature="0"
         style="fill:#d4aa00;fill-rule:evenodd" />
      <path
         d="m 186.779,428.888 -25.138,-35.899 c -1.992,-2.845 -5.969,-3.546 -8.813,-1.554 0,0 -0.001,10e-4 -0.001,10e-4 -2.846,1.992 -3.547,5.969 -1.555,8.815 0,0 0,0 0,0 l 25.137,35.898 c 1.991,2.844 5.97,3.546 8.814,1.554 0,0 10e-4,-0.002 10e-4,-0.002 2.845,-1.99 3.547,-5.969 1.555,-8.813 0,0 0,0 0,0 z"
         id="rect4967-4-2-8"
         inkscape:connector-curvature="0"
         style="fill:#d4aa00;fill-rule:evenodd" />
      <path
         d="m 190.353,456.239 c -0.068,7.217 -6.04,13.121 -13.24,13.121 -7.286,0 -13.258,-5.989 -13.258,-13.257 0,-7.27 5.972,-13.259 13.258,-13.259 7.235,0 13.207,5.955 13.24,13.189"
         id="path4989-1-6"
         inkscape:connector-curvature="0"
         style="fill:#ececec;fill-rule:evenodd" />
      <path
         d="m 267.969,455.615 c -0.068,7.217 -6.04,13.121 -13.24,13.121 -7.286,0 -13.258,-5.989 -13.258,-13.257 0,-7.27 5.972,-13.259 13.258,-13.259 7.235,0 13.207,5.956 13.24,13.191"
         id="path4989-0-6-0"
         inkscape:connector-curvature="0"
         style="fill:#ececec;fill-rule:evenodd" />
    </g>
    <g
       id="blue_droid"
       transform="matrix(0.50345621,0,0,0.50345621,620.2605,607.52864)">
      <path
         d="m 429.917,492.276 -0.002,0 c 10.685,0 19.477,8.793 19.477,19.477 l 0,85.694 c 0,10.685 -8.792,19.477 -19.477,19.477 l 0.002,0 c -10.684,0 -19.477,-8.792 -19.477,-19.477 l 0,-85.694 c 0,-10.684 8.793,-19.477 19.477,-19.477 z"
         id="rect4921-2-8"
         inkscape:connector-curvature="0"
         style="fill:#0066ff;fill-rule:evenodd" />
      <path
         d="m 653.659,491.301 -0.002,0 c 10.684,0 19.476,8.794 19.476,19.478 l 0,85.693 c 0,10.685 -8.792,19.477 -19.476,19.477 l 0.002,0 c -10.684,0 -19.478,-8.792 -19.478,-19.477 l 0,-85.693 c 0,-10.684 8.794,-19.478 19.478,-19.478 z"
         id="rect4921-1-7-6"
         inkscape:connector-curvature="0"
         style="fill:#0066ff;fill-rule:evenodd" />
      <path
         d="m 452.317,493.252 179.183,0 0,113.935 -179.183,0 z"
         id="rect4941-6-5"
         inkscape:connector-curvature="0"
         style="fill:#0066ff;fill-rule:evenodd" />
      <path
         d="m 467.899,591.605 148.012,0 c 8.546,0 15.58,7.035 15.58,15.582 l 0,31.164 c 0,8.546 -7.034,15.58 -15.58,15.58 l -148.012,0 c -8.547,0 -15.582,-7.034 -15.582,-15.58 l 0,-31.164 c 0,-8.547 7.035,-15.582 15.582,-15.582 z"
         id="rect4943-1-0"
         inkscape:connector-curvature="0"
         style="fill:#0066ff;fill-rule:evenodd" />
      <path
         d="m 507.825,630.557 c 0,0 0.002,0 0.002,0 11.218,0 20.449,9.231 20.449,20.45 0,0 0,0 0,0 l 0,50.641 c 0,11.217 -9.231,20.449 -20.449,20.449 0,0 -0.002,0 -0.002,0 -11.218,0 -20.449,-9.232 -20.449,-20.449 0,0 0,0 0,0 l 0,-50.641 c 0,-11.219 9.231,-20.45 20.449,-20.45 z"
         id="rect4945-4-9"
         inkscape:connector-curvature="0"
         style="fill:#0066ff;fill-rule:evenodd" />
      <path
         d="m 577.94,629.585 c 0,0 10e-4,0 10e-4,0 11.219,0 20.451,9.231 20.451,20.45 0,0 0,0 0,0 l 0,50.64 c 0,11.218 -9.232,20.449 -20.451,20.449 0,0 -10e-4,0 -10e-4,0 -11.219,0 -20.449,-9.231 -20.449,-20.449 0,0 0,0 0,0 l 0,-50.64 c 0,-11.219 9.23,-20.45 20.449,-20.45 z"
         id="rect4945-7-2-0"
         inkscape:connector-curvature="0"
         style="fill:#0066ff;fill-rule:evenodd" />
      <path
         d="m 452.317,488.823 c 0.028,-41.39 40.46,-75.431 89.592,-75.431 49.148,0 89.592,34.067 89.592,75.469 0,0.211 0,0.423 -0.006,0.634"
         id="path4965-3-06"
         inkscape:connector-curvature="0"
         style="fill:#0066ff;fill-rule:evenodd" />
      <path
         d="m 570.9,433.068 25.136,-35.899 c 1.992,-2.844 5.969,-3.545 8.813,-1.554 0,0 0.003,10e-4 0.003,10e-4 2.844,1.992 3.545,5.969 1.553,8.815 0,0 0,0 0,0 l -25.136,35.898 c -1.992,2.844 -5.969,3.546 -8.814,1.555 0,0 -0.002,-0.001 -0.002,-0.001 -2.844,-1.992 -3.545,-5.97 -1.553,-8.815 0,0 0,0 0,0 z"
         id="rect4967-2-1"
         inkscape:connector-curvature="0"
         style="fill:#0066ff;fill-rule:evenodd" />
      <path
         d="m 514.868,432.581 -25.137,-35.898 c -1.992,-2.844 -5.97,-3.546 -8.814,-1.555 0,0 -0.002,0.001 -0.002,0.001 -2.844,1.992 -3.546,5.97 -1.554,8.815 0,0 0,0 0,0 l 25.136,35.899 c 1.992,2.844 5.97,3.545 8.815,1.554 0,0 10e-4,-10e-4 10e-4,-10e-4 2.844,-1.992 3.546,-5.969 1.555,-8.815 0,0 0,0 0,0 z"
         id="rect4967-4-2-3"
         inkscape:connector-curvature="0"
         style="fill:#0066ff;fill-rule:evenodd" />
      <path
         d="m 518.443,459.932 c -0.068,7.217 -6.04,13.121 -13.242,13.121 -7.285,0 -13.257,-5.989 -13.257,-13.257 0,-7.269 5.972,-13.259 13.257,-13.259 7.235,0 13.207,5.956 13.242,13.191"
         id="path4989-1-8"
         inkscape:connector-curvature="0"
         style="fill:#ececec;fill-rule:evenodd" />
      <path
         d="m 596.059,459.309 c -0.068,7.218 -6.04,13.122 -13.242,13.122 -7.285,0 -13.257,-5.99 -13.257,-13.259 0,-7.268 5.972,-13.257 13.257,-13.257 7.235,0 13.207,5.954 13.242,13.189"
         id="path4989-0-6-9"
         inkscape:connector-curvature="0"
         style="fill:#ececec;fill-rule:evenodd" />
    </g>
    <g
       id="orange_droid"
       transform="matrix(-0.19146776,0.46562673,-0.46562673,-0.19146776,763.00281,705.33511)">
      <path
         d="m 101.829,488.584 -0.002,0 c 10.684,0 19.477,8.792 19.477,19.476 l 0,85.695 c 0,10.684 -8.793,19.476 -19.477,19.476 l 0.002,0 c -10.685,0 -19.477,-8.792 -19.477,-19.476 l 0,-85.695 c 0,-10.684 8.792,-19.476 19.477,-19.476 z"
         id="rect4921-2-9-1"
         inkscape:connector-curvature="0"
         style="fill:#ff9955;fill-rule:evenodd" />
      <path
         d="m 325.571,487.609 -0.003,0 c 10.685,0 19.477,8.792 19.477,19.476 l 0,85.695 c 0,10.684 -8.792,19.476 -19.477,19.476 l 0.003,0 c -10.684,0 -19.478,-8.792 -19.478,-19.476 l 0,-85.695 c 0,-10.684 8.794,-19.476 19.478,-19.476 z"
         id="rect4921-1-7-31-4"
         inkscape:connector-curvature="0"
         style="fill:#ff9955;fill-rule:evenodd" />
      <path
         d="m 124.231,489.556 179.181,0 0,113.936 -179.181,0 z"
         id="rect4941-6-9-1"
         inkscape:connector-curvature="0"
         style="fill:#ff9955;fill-rule:evenodd" />
      <path
         d="m 139.811,587.911 148.012,0 c 8.546,0 15.58,7.034 15.58,15.581 l 0,31.163 c 0,8.546 -7.034,15.581 -15.58,15.581 l -148.012,0 c -8.547,0 -15.582,-7.035 -15.582,-15.581 l 0,-31.163 c 0,-8.547 7.035,-15.581 15.582,-15.581 z"
         id="rect4943-1-8-7"
         inkscape:connector-curvature="0"
         style="fill:#ff9955;fill-rule:evenodd" />
      <path
         d="m 179.736,626.865 c 0,0 0.003,0 0.003,0 11.218,0 20.449,9.231 20.449,20.45 0,0 0,0 0,0 l 0,50.64 c 0,11.218 -9.231,20.449 -20.449,20.449 0,0 -0.003,0 -0.003,0 -11.217,0 -20.449,-9.231 -20.449,-20.449 0,0 0,0 0,0 l 0,-50.64 c 0,-11.219 9.232,-20.45 20.449,-20.45 z"
         id="rect4945-4-6-7"
         inkscape:connector-curvature="0"
         style="fill:#ff9955;fill-rule:evenodd" />
      <path
         d="m 249.852,625.891 c 0,0 0.001,0 0.001,0 11.219,0 20.45,9.23 20.45,20.449 0,0 0,0 0,0 l 0,50.64 c 0,11.219 -9.231,20.449 -20.45,20.449 0,0 -0.001,0 -0.001,0 -11.219,0 -20.449,-9.23 -20.449,-20.449 0,0 0,0 0,0 l 0,-50.64 c 0,-11.219 9.23,-20.449 20.449,-20.449 z"
         id="rect4945-7-2-5-6"
         inkscape:connector-curvature="0"
         style="fill:#ff9955;fill-rule:evenodd" />
      <path
         d="m 124.228,485.129 c 0.028,-41.389 40.461,-75.43 89.592,-75.43 49.148,0 89.592,34.066 89.592,75.469 0,0.211 0,0.423 -0.005,0.633"
         id="path4965-3-0-4"
         inkscape:connector-curvature="0"
         style="fill:#ff9955;fill-rule:evenodd" />
      <path
         d="m 242.811,429.375 25.136,-35.899 c 1.992,-2.845 5.969,-3.547 8.814,-1.555 0,0 0.002,0.002 0.002,0.002 2.844,1.992 3.545,5.969 1.553,8.813 0,0 0,0 0,0 l -25.136,35.9 c -1.992,2.844 -5.969,3.545 -8.815,1.553 0,0 -0.001,-0.001 -0.001,-0.001 -2.844,-1.991 -3.545,-5.969 -1.553,-8.813 0,0 0,0 0,0 z"
         id="rect4967-2-2-2"
         inkscape:connector-curvature="0"
         style="fill:#ff9955;fill-rule:evenodd" />
      <path
         d="m 186.779,428.888 -25.138,-35.899 c -1.992,-2.845 -5.969,-3.546 -8.813,-1.554 0,0 -0.001,10e-4 -0.001,10e-4 -2.846,1.992 -3.547,5.969 -1.555,8.815 0,0 0,0 0,0 l 25.137,35.898 c 1.991,2.844 5.97,3.546 8.814,1.554 0,0 10e-4,-0.002 10e-4,-0.002 2.845,-1.99 3.547,-5.969 1.555,-8.813 0,0 0,0 0,0 z"
         id="rect4967-4-2-8-1"
         inkscape:connector-curvature="0"
         style="fill:#ff9955;fill-rule:evenodd" />
      <path
         d="m 190.353,456.239 c -0.068,7.217 -6.04,13.121 -13.24,13.121 -7.286,0 -13.258,-5.989 -13.258,-13.257 0,-7.27 5.972,-13.259 13.258,-13.259 7.235,0 13.207,5.955 13.24,13.189"
         id="path4989-1-6-7"
         inkscape:connector-curvature="0"
         style="fill:#ececec;fill-rule:evenodd" />
      <path
         d="m 267.969,455.615 c -0.068,7.217 -6.04,13.121 -13.24,13.121 -7.286,0 -13.258,-5.989 -13.258,-13.257 0,-7.27 5.972,-13.259 13.258,-13.259 7.235,0 13.207,5.956 13.24,13.191"
         id="path4989-0-6-0-7"
         inkscape:connector-curvature="0"
         style="fill:#ececec;fill-rule:evenodd" />
    </g>
    <g
       id="yellow_droid-4"
       transform="matrix(0.06713316,0.49896021,-0.49896021,0.06713316,587.46212,712.37378)">
      <path
         d="m 101.829,488.584 -0.002,0 c 10.684,0 19.477,8.792 19.477,19.476 l 0,85.695 c 0,10.684 -8.793,19.476 -19.477,19.476 l 0.002,0 c -10.685,0 -19.477,-8.792 -19.477,-19.476 l 0,-85.695 c 0,-10.684 8.792,-19.476 19.477,-19.476 z"
         id="rect4921-2-9-3"
         inkscape:connector-curvature="0"
         style="fill:#00ccff;fill-rule:evenodd" />
      <path
         d="m 325.571,487.609 -0.003,0 c 10.685,0 19.477,8.792 19.477,19.476 l 0,85.695 c 0,10.684 -8.792,19.476 -19.477,19.476 l 0.003,0 c -10.684,0 -19.478,-8.792 -19.478,-19.476 l 0,-85.695 c 0,-10.684 8.794,-19.476 19.478,-19.476 z"
         id="rect4921-1-7-31-9"
         inkscape:connector-curvature="0"
         style="fill:#00ccff;fill-rule:evenodd" />
      <path
         d="m 124.231,489.556 179.181,0 0,113.936 -179.181,0 z"
         id="rect4941-6-9-9"
         inkscape:connector-curvature="0"
         style="fill:#00ccff;fill-rule:evenodd" />
      <path
         d="m 139.811,587.911 148.012,0 c 8.546,0 15.58,7.034 15.58,15.581 l 0,31.163 c 0,8.546 -7.034,15.581 -15.58,15.581 l -148.012,0 c -8.547,0 -15.582,-7.035 -15.582,-15.581 l 0,-31.163 c 0,-8.547 7.035,-15.581 15.582,-15.581 z"
         id="rect4943-1-8-2"
         inkscape:connector-curvature="0"
         style="fill:#00ccff;fill-rule:evenodd" />
      <path
         d="m 179.736,626.865 c 0,0 0.003,0 0.003,0 11.218,0 20.449,9.231 20.449,20.45 0,0 0,0 0,0 l 0,50.64 c 0,11.218 -9.231,20.449 -20.449,20.449 0,0 -0.003,0 -0.003,0 -11.217,0 -20.449,-9.231 -20.449,-20.449 0,0 0,0 0,0 l 0,-50.64 c 0,-11.219 9.232,-20.45 20.449,-20.45 z"
         id="rect4945-4-6-5"
         inkscape:connector-curvature="0"
         style="fill:#00ccff;fill-rule:evenodd" />
      <path
         d="m 249.852,625.891 c 0,0 0.001,0 0.001,0 11.219,0 20.45,9.23 20.45,20.449 0,0 0,0 0,0 l 0,50.64 c 0,11.219 -9.231,20.449 -20.45,20.449 0,0 -0.001,0 -0.001,0 -11.219,0 -20.449,-9.23 -20.449,-20.449 0,0 0,0 0,0 l 0,-50.64 c 0,-11.219 9.23,-20.449 20.449,-20.449 z"
         id="rect4945-7-2-5-9"
         inkscape:connector-curvature="0"
         style="fill:#00ccff;fill-rule:evenodd" />
      <path
         d="m 124.228,485.129 c 0.028,-41.389 40.461,-75.43 89.592,-75.43 49.148,0 89.592,34.066 89.592,75.469 0,0.211 0,0.423 -0.005,0.633"
         id="path4965-3-0-0"
         inkscape:connector-curvature="0"
         style="fill:#00ccff;fill-rule:evenodd" />
      <path
         d="m 242.811,429.375 25.136,-35.899 c 1.992,-2.845 5.969,-3.547 8.814,-1.555 0,0 0.002,0.002 0.002,0.002 2.844,1.992 3.545,5.969 1.553,8.813 0,0 0,0 0,0 l -25.136,35.9 c -1.992,2.844 -5.969,3.545 -8.815,1.553 0,0 -0.001,-0.001 -0.001,-0.001 -2.844,-1.991 -3.545,-5.969 -1.553,-8.813 0,0 0,0 0,0 z"
         id="rect4967-2-2-3"
         inkscape:connector-curvature="0"
         style="fill:#00ccff;fill-rule:evenodd" />
      <path
         d="m 186.779,428.888 -25.138,-35.899 c -1.992,-2.845 -5.969,-3.546 -8.813,-1.554 0,0 -0.001,10e-4 -0.001,10e-4 -2.846,1.992 -3.547,5.969 -1.555,8.815 0,0 0,0 0,0 l 25.137,35.898 c 1.991,2.844 5.97,3.546 8.814,1.554 0,0 10e-4,-0.002 10e-4,-0.002 2.845,-1.99 3.547,-5.969 1.555,-8.813 0,0 0,0 0,0 z"
         id="rect4967-4-2-8-7"
         inkscape:connector-curvature="0"
         style="fill:#00ccff;fill-rule:evenodd" />
      <path
         d="m 190.353,456.239 c -0.068,7.217 -6.04,13.121 -13.24,13.121 -7.286,0 -13.258,-5.989 -13.258,-13.257 0,-7.27 5.972,-13.259 13.258,-13.259 7.235,0 13.207,5.955 13.24,13.189"
         id="path4989-1-6-2"
         inkscape:connector-curvature="0"
         style="fill:#ececec;fill-rule:evenodd" />
      <path
         d="m 267.969,455.615 c -0.068,7.217 -6.04,13.121 -13.24,13.121 -7.286,0 -13.258,-5.989 -13.258,-13.257 0,-7.27 5.972,-13.259 13.258,-13.259 7.235,0 13.207,5.956 13.24,13.191"
         id="path4989-0-6-0-70"
         inkscape:connector-curvature="0"
         style="fill:#ececec;fill-rule:evenodd" />
    </g>
    <g
       id="pink_droid"
       transform="matrix(-0.13845283,0.48404439,-0.48404439,-0.13845283,385.64137,622.52724)">
      <path
         d="m 101.829,488.584 -0.002,0 c 10.684,0 19.477,8.792 19.477,19.476 l 0,85.695 c 0,10.684 -8.793,19.476 -19.477,19.476 l 0.002,0 c -10.685,0 -19.477,-8.792 -19.477,-19.476 l 0,-85.695 c 0,-10.684 8.792,-19.476 19.477,-19.476 z"
         id="rect4921-2-9-8"
         inkscape:connector-curvature="0"
         style="fill:#ff0066;fill-rule:evenodd" />
      <path
         d="m 325.571,487.609 -0.003,0 c 10.685,0 19.477,8.792 19.477,19.476 l 0,85.695 c 0,10.684 -8.792,19.476 -19.477,19.476 l 0.003,0 c -10.684,0 -19.478,-8.792 -19.478,-19.476 l 0,-85.695 c 0,-10.684 8.794,-19.476 19.478,-19.476 z"
         id="rect4921-1-7-31-3"
         inkscape:connector-curvature="0"
         style="fill:#ff0066;fill-rule:evenodd" />
      <path
         d="m 124.231,489.556 179.181,0 0,113.936 -179.181,0 z"
         id="rect4941-6-9-8"
         inkscape:connector-curvature="0"
         style="fill:#ff0066;fill-rule:evenodd" />
      <path
         d="m 139.811,587.911 148.012,0 c 8.546,0 15.58,7.034 15.58,15.581 l 0,31.163 c 0,8.546 -7.034,15.581 -15.58,15.581 l -148.012,0 c -8.547,0 -15.582,-7.035 -15.582,-15.581 l 0,-31.163 c 0,-8.547 7.035,-15.581 15.582,-15.581 z"
         id="rect4943-1-8-1"
         inkscape:connector-curvature="0"
         style="fill:#ff0066;fill-rule:evenodd" />
      <path
         d="m 179.736,626.865 c 0,0 0.003,0 0.003,0 11.218,0 20.449,9.231 20.449,20.45 0,0 0,0 0,0 l 0,50.64 c 0,11.218 -9.231,20.449 -20.449,20.449 0,0 -0.003,0 -0.003,0 -11.217,0 -20.449,-9.231 -20.449,-20.449 0,0 0,0 0,0 l 0,-50.64 c 0,-11.219 9.232,-20.45 20.449,-20.45 z"
         id="rect4945-4-6-9"
         inkscape:connector-curvature="0"
         style="fill:#ff0066;fill-rule:evenodd" />
      <path
         d="m 249.852,625.891 c 0,0 0.001,0 0.001,0 11.219,0 20.45,9.23 20.45,20.449 0,0 0,0 0,0 l 0,50.64 c 0,11.219 -9.231,20.449 -20.45,20.449 0,0 -0.001,0 -0.001,0 -11.219,0 -20.449,-9.23 -20.449,-20.449 0,0 0,0 0,0 l 0,-50.64 c 0,-11.219 9.23,-20.449 20.449,-20.449 z"
         id="rect4945-7-2-5-7"
         inkscape:connector-curvature="0"
         style="fill:#ff0066;fill-rule:evenodd" />
      <path
         d="m 124.228,485.129 c 0.028,-41.389 40.461,-75.43 89.592,-75.43 49.148,0 89.592,34.066 89.592,75.469 0,0.211 0,0.423 -0.005,0.633"
         id="path4965-3-0-46"
         inkscape:connector-curvature="0"
         style="fill:#ff0066;fill-rule:evenodd" />
      <path
         d="m 242.811,429.375 25.136,-35.899 c 1.992,-2.845 5.969,-3.547 8.814,-1.555 0,0 0.002,0.002 0.002,0.002 2.844,1.992 3.545,5.969 1.553,8.813 0,0 0,0 0,0 l -25.136,35.9 c -1.992,2.844 -5.969,3.545 -8.815,1.553 0,0 -0.001,-0.001 -0.001,-0.001 -2.844,-1.991 -3.545,-5.969 -1.553,-8.813 0,0 0,0 0,0 z"
         id="rect4967-2-2-5"
         inkscape:connector-curvature="0"
         style="fill:#ff0066;fill-rule:evenodd" />
      <path
         d="m 186.779,428.888 -25.138,-35.899 c -1.992,-2.845 -5.969,-3.546 -8.813,-1.554 0,0 -0.001,10e-4 -0.001,10e-4 -2.846,1.992 -3.547,5.969 -1.555,8.815 0,0 0,0 0,0 l 25.137,35.898 c 1.991,2.844 5.97,3.546 8.814,1.554 0,0 10e-4,-0.002 10e-4,-0.002 2.845,-1.99 3.547,-5.969 1.555,-8.813 0,0 0,0 0,0 z"
         id="rect4967-4-2-8-5"
         inkscape:connector-curvature="0"
         style="fill:#ff0066;fill-rule:evenodd" />
      <path
         d="m 190.353,456.239 c -0.068,7.217 -6.04,13.121 -13.24,13.121 -7.286,0 -13.258,-5.989 -13.258,-13.257 0,-7.27 5.972,-13.259 13.258,-13.259 7.235,0 13.207,5.955 13.24,13.189"
         id="path4989-1-6-0"
         inkscape:connector-curvature="0"
         style="fill:#ececec;fill-rule:evenodd" />
      <path
         d="m 267.969,455.615 c -0.068,7.217 -6.04,13.121 -13.24,13.121 -7.286,0 -13.258,-5.989 -13.258,-13.257 0,-7.27 5.972,-13.259 13.258,-13.259 7.235,0 13.207,5.956 13.24,13.191"
         id="path4989-0-6-0-1"
         inkscape:connector-curvature="0"
         style="fill:#ececec;fill-rule:evenodd" />
    </g>
    <g
       id="purple_droid"
       transform="matrix(0.24473464,0.43996945,-0.43996945,0.24473464,322.18172,729.24276)">
      <path
         d="m 101.829,488.584 -0.002,0 c 10.684,0 19.477,8.792 19.477,19.476 l 0,85.695 c 0,10.684 -8.793,19.476 -19.477,19.476 l 0.002,0 c -10.685,0 -19.477,-8.792 -19.477,-19.476 l 0,-85.695 c 0,-10.684 8.792,-19.476 19.477,-19.476 z"
         id="rect4921-2-9-1-3"
         inkscape:connector-curvature="0"
         style="fill:#800080;fill-rule:evenodd" />
      <path
         d="m 325.571,487.609 -0.003,0 c 10.685,0 19.477,8.792 19.477,19.476 l 0,85.695 c 0,10.684 -8.792,19.476 -19.477,19.476 l 0.003,0 c -10.684,0 -19.478,-8.792 -19.478,-19.476 l 0,-85.695 c 0,-10.684 8.794,-19.476 19.478,-19.476 z"
         id="rect4921-1-7-31-4-4"
         inkscape:connector-curvature="0"
         style="fill:#800080;fill-rule:evenodd" />
      <path
         d="m 124.231,489.556 179.181,0 0,113.936 -179.181,0 z"
         id="rect4941-6-9-1-9"
         inkscape:connector-curvature="0"
         style="fill:#800080;fill-rule:evenodd" />
      <path
         d="m 139.811,587.911 148.012,0 c 8.546,0 15.58,7.034 15.58,15.581 l 0,31.163 c 0,8.546 -7.034,15.581 -15.58,15.581 l -148.012,0 c -8.547,0 -15.582,-7.035 -15.582,-15.581 l 0,-31.163 c 0,-8.547 7.035,-15.581 15.582,-15.581 z"
         id="rect4943-1-8-7-8"
         inkscape:connector-curvature="0"
         style="fill:#800080;fill-rule:evenodd" />
      <path
         d="m 179.736,626.865 c 0,0 0.003,0 0.003,0 11.218,0 20.449,9.231 20.449,20.45 0,0 0,0 0,0 l 0,50.64 c 0,11.218 -9.231,20.449 -20.449,20.449 0,0 -0.003,0 -0.003,0 -11.217,0 -20.449,-9.231 -20.449,-20.449 0,0 0,0 0,0 l 0,-50.64 c 0,-11.219 9.232,-20.45 20.449,-20.45 z"
         id="rect4945-4-6-7-2"
         inkscape:connector-curvature="0"
         style="fill:#800080;fill-rule:evenodd" />
      <path
         d="m 249.852,625.891 c 0,0 0.001,0 0.001,0 11.219,0 20.45,9.23 20.45,20.449 0,0 0,0 0,0 l 0,50.64 c 0,11.219 -9.231,20.449 -20.45,20.449 0,0 -0.001,0 -0.001,0 -11.219,0 -20.449,-9.23 -20.449,-20.449 0,0 0,0 0,0 l 0,-50.64 c 0,-11.219 9.23,-20.449 20.449,-20.449 z"
         id="rect4945-7-2-5-6-1"
         inkscape:connector-curvature="0"
         style="fill:#800080;fill-rule:evenodd" />
      <path
         d="m 124.228,485.129 c 0.028,-41.389 40.461,-75.43 89.592,-75.43 49.148,0 89.592,34.066 89.592,75.469 0,0.211 0,0.423 -0.005,0.633"
         id="path4965-3-0-4-8"
         inkscape:connector-curvature="0"
         style="fill:#800080;fill-rule:evenodd" />
      <path
         d="m 242.811,429.375 25.136,-35.899 c 1.992,-2.845 5.969,-3.547 8.814,-1.555 0,0 0.002,0.002 0.002,0.002 2.844,1.992 3.545,5.969 1.553,8.813 0,0 0,0 0,0 l -25.136,35.9 c -1.992,2.844 -5.969,3.545 -8.815,1.553 0,0 -0.001,-0.001 -0.001,-0.001 -2.844,-1.991 -3.545,-5.969 -1.553,-8.813 0,0 0,0 0,0 z"
         id="rect4967-2-2-2-3"
         inkscape:connector-curvature="0"
         style="fill:#800080;fill-rule:evenodd" />
      <path
         d="m 186.779,428.888 -25.138,-35.899 c -1.992,-2.845 -5.969,-3.546 -8.813,-1.554 0,0 -0.001,10e-4 -0.001,10e-4 -2.846,1.992 -3.547,5.969 -1.555,8.815 0,0 0,0 0,0 l 25.137,35.898 c 1.991,2.844 5.97,3.546 8.814,1.554 0,0 10e-4,-0.002 10e-4,-0.002 2.845,-1.99 3.547,-5.969 1.555,-8.813 0,0 0,0 0,0 z"
         id="rect4967-4-2-8-1-8"
         inkscape:connector-curvature="0"
         style="fill:#800080;fill-rule:evenodd" />
      <path
         d="m 190.353,456.239 c -0.068,7.217 -6.04,13.121 -13.24,13.121 -7.286,0 -13.258,-5.989 -13.258,-13.257 0,-7.27 5.972,-13.259 13.258,-13.259 7.235,0 13.207,5.955 13.24,13.189"
         id="path4989-1-6-7-4"
         inkscape:connector-curvature="0"
         style="fill:#ececec;fill-rule:evenodd" />
      <path
         d="m 267.969,455.615 c -0.068,7.217 -6.04,13.121 -13.24,13.121 -7.286,0 -13.258,-5.989 -13.258,-13.257 0,-7.27 5.972,-13.259 13.258,-13.259 7.235,0 13.207,5.956 13.24,13.191"
         id="path4989-0-6-0-7-1"
         inkscape:connector-curvature="0"
         style="fill:#ececec;fill-rule:evenodd" />
    </g>
  </g>
  <g
     inkscape:groupmode="layer"
     id="layer2"
     inkscape:label="Gradient"
     style="display:inline"
     sodipodi:insensitive="true">
    <rect
       style="fill:url(#linearGradient6992);fill-opacity:1;fill-rule:evenodd;stroke:none;stroke-width:1.05218887px;stroke-linecap:butt;stroke-linejoin:miter;stroke-opacity:1"
       id="fade_rect"
       width="618.07117"
       height="500"
       x="0"
       y="0" />
  </g>
  <g
     inkscape:groupmode="layer"
     id="layer4"
     inkscape:label="Text"
     sodipodi:insensitive="true">
    <text
       xml:space="preserve"
       style="font-style:normal;font-weight:normal;font-size:112.14252472px;line-height:125%;font-family:sans-serif;letter-spacing:0px;word-spacing:0px;display:inline;fill:#000000;fill-opacity:1;stroke:none;stroke-width:1px;stroke-linecap:butt;stroke-linejoin:miter;stroke-opacity:1"
       x="12.395199"
       y="249.62682"
       id="title"
       sodipodi:linespacing="125%"><tspan
         sodipodi:role="line"
         id="tspan7249"
         x="12.395199"
         y="249.62682"
         style="font-style:normal;font-variant:normal;font-weight:normal;font-stretch:normal;font-family:'High Tower Text';-inkscape-font-specification:'High Tower Text'">ContactGrid</tspan></text>
  </g>
</svg>
