<?xml version="1.0" encoding="UTF-8" standalone="no"?>
<!-- Created with Serif DrawPlus 11, 0, 0, 18 (Mar 20, 15:09:53) (http://www.serif.com) -->
<svg version="1.1" xmlns="http://www.w3.org/2000/svg" xmlns:xlink="http://www.w3.org/1999/xlink" width="768" height="768">
	<g id="Layer_1">
		<g id="dp_group001">
			<path id="dp_path002" fill="#353535" fill-rule="evenodd" stroke="#aaaaaa" stroke-width="7.33333" d="M 232.031,291.016 C 232.031,337.604 213.213,371.743 175.627,393.432 C 147.329,409.568 132.008,425.8 129.565,442.271 C 128.991,446.581 128.56,450.889 128.176,455.2 C 126.836,459.125 123.484,461.088 118.073,461.088 C 99.256,461.088 85.7067,462.189 77.4707,464.44 C 75.7947,465.015 74.5027,465.301 73.544,465.301 C 66.84,465.301 63.4893,456.109 63.4893,437.819 C 63.4893,421.873 72.6827,402.195 91.0213,378.733 C 109.36,355.224 118.553,335.545 118.553,319.648 C 118.553,295.516 105.768,283.451 80.2467,283.451 C 64.0653,283.451 42.9973,289.82 17.0933,302.604 C 9.096,302.604 5.07467,278.759 5.07467,231.068 C 5.07467,225.851 5.36133,221.924 5.93733,219.289 C 8.52267,206.745 24.1307,197.025 52.7173,190.035 C 73.4493,184.959 93.4147,182.421 112.663,182.421 C 146.467,182.421 174.477,191.855 196.743,210.768 C 220.251,230.781 232.031,257.547 232.031,291.016 Z M 156.379,532.384 C 156.379,546.795 151.351,559.245 141.344,569.777 C 131.337,580.311 119.08,585.579 104.668,585.579 C 90.2547,585.579 77.9987,580.311 67.9893,569.825 C 57.9827,559.34 52.956,546.891 52.956,532.479 C 52.956,518.067 57.9827,505.761 67.9893,495.563 C 77.9987,485.364 90.2547,480.241 104.668,480.241 C 119.08,480.241 131.337,485.316 141.344,495.515 C 151.351,505.713 156.379,518.019 156.379,532.384 Z "/>
			<path id="dp_path003" fill="#353535" fill-rule="evenodd" stroke="#aaaaaa" stroke-width="7.33333" d="M 497.477,291.016 C 497.477,337.604 478.66,371.743 441.075,393.432 C 412.776,409.568 397.455,425.8 395.012,442.271 C 394.439,446.581 394.007,450.889 393.624,455.2 C 392.283,459.125 388.932,461.088 383.52,461.088 C 364.703,461.088 351.153,462.189 342.917,464.44 C 341.241,465.015 339.949,465.301 338.991,465.301 C 332.288,465.301 328.936,456.109 328.936,437.819 C 328.936,421.873 338.131,402.195 356.468,378.733 C 374.807,355.224 384,335.545 384,319.648 C 384,295.516 371.215,283.451 345.695,283.451 C 329.512,283.451 308.444,289.82 282.54,302.604 C 274.543,302.604 270.521,278.759 270.521,231.068 C 270.521,225.851 270.808,221.924 271.384,219.289 C 273.969,206.745 289.579,197.025 318.164,190.035 C 338.896,184.959 358.861,182.421 378.109,182.421 C 411.915,182.421 439.925,191.855 462.189,210.768 C 485.699,230.781 497.477,257.547 497.477,291.016 Z M 421.825,532.384 C 421.825,546.795 416.797,559.245 406.791,569.777 C 396.784,580.311 384.527,585.579 370.115,585.579 C 355.701,585.579 343.445,580.311 333.436,569.825 C 323.429,559.34 318.404,546.891 318.404,532.479 C 318.404,518.067 323.429,505.761 333.436,495.563 C 343.445,485.364 355.701,480.241 370.115,480.241 C 384.527,480.241 396.784,485.316 406.791,495.515 C 416.797,505.713 421.825,518.019 421.825,532.384 Z "/>
			<path id="dp_path004" fill="#353535" fill-rule="evenodd" stroke="#aaaaaa" stroke-width="7.33333" d="M 762.924,291.016 C 762.924,337.604 744.107,371.743 706.52,393.432 C 678.223,409.568 662.901,425.8 660.459,442.271 C 659.885,446.581 659.453,450.889 659.069,455.2 C 657.729,459.125 654.379,461.088 648.967,461.088 C 630.149,461.088 616.6,462.189 608.364,464.44 C 606.688,465.015 605.396,465.301 604.437,465.301 C 597.733,465.301 594.383,456.109 594.383,437.819 C 594.383,421.873 603.576,402.195 621.915,378.733 C 640.253,355.224 649.447,335.545 649.447,319.648 C 649.447,295.516 636.661,283.451 611.141,283.451 C 594.959,283.451 573.891,289.82 547.987,302.604 C 539.989,302.604 535.968,278.759 535.968,231.068 C 535.968,225.851 536.255,221.924 536.831,219.289 C 539.416,206.745 555.024,197.025 583.611,190.035 C 604.343,184.959 624.308,182.421 643.556,182.421 C 677.36,182.421 705.371,191.855 727.636,210.768 C 751.145,230.781 762.924,257.547 762.924,291.016 Z M 687.272,532.384 C 687.272,546.795 682.244,559.245 672.237,569.777 C 662.231,580.311 649.973,585.579 635.561,585.579 C 621.148,585.579 608.892,580.311 598.883,569.825 C 588.876,559.34 583.849,546.891 583.849,532.479 C 583.849,518.067 588.876,505.761 598.883,495.563 C 608.892,485.364 621.148,480.241 635.561,480.241 C 649.973,480.241 662.231,485.316 672.237,495.515 C 682.244,505.713 687.272,518.019 687.272,532.384 Z "/>
		</g>
	</g>
</svg>